<svg width="40" height="40" viewBox="0 0 40 40" fill="white" xmlns="http://www.w3.org/2000/svg">
<path fill-rule="evenodd" clip-rule="evenodd" d="M20 1.25C9.41046 1.25 0.833374 9.82708 0.833374 20.4167C0.833374 28.8979 6.31983 36.0615 13.9386 38.601C14.8969 38.7687 15.2563 38.1937 15.2563 37.6906C15.2563 37.2354 15.2323 35.726 15.2323 34.1208C10.4167 35.0073 9.17087 32.9469 8.78754 31.8687C8.57192 31.3177 7.63754 29.6167 6.82296 29.1615C6.15212 28.8021 5.19379 27.9156 6.799 27.8917C8.30837 27.8677 9.3865 29.2812 9.74587 29.8562C11.4709 32.7552 14.2261 31.9406 15.3282 31.4375C15.4959 30.1917 15.999 29.3531 16.55 28.874C12.2855 28.3948 7.82921 26.7417 7.82921 19.4104C7.82921 17.326 8.57192 15.601 9.79379 14.2594C9.60212 13.7802 8.93129 11.8156 9.98546 9.18021C9.98546 9.18021 11.5907 8.67708 15.2563 11.1448C16.7896 10.7135 18.4188 10.4979 20.048 10.4979C21.6771 10.4979 23.3063 10.7135 24.8396 11.1448C28.5053 8.65312 30.1105 9.18021 30.1105 9.18021C31.1646 11.8156 30.4938 13.7802 30.3021 14.2594C31.524 15.601 32.2667 17.3021 32.2667 19.4104C32.2667 26.7656 27.7865 28.3948 23.5219 28.874C24.2167 29.4729 24.8157 30.6229 24.8157 32.4198C24.8157 34.9833 24.7917 37.0437 24.7917 37.6906C24.7917 38.1937 25.1511 38.7927 26.1094 38.601C33.6803 36.0615 39.1667 28.874 39.1667 20.4167C39.1667 9.82708 30.5896 1.25 20 1.25Z" fill="white"/>
</svg>
