<svg width="170" height="70" viewBox="0 0 180 52" fill="none" xmlns="http://www.w3.org/2000/svg">
<path d="M0.201953 31.7792V24.5417L29.152 11.7939V20.1211L9.33107 28.0782L9.59837 27.6464V28.6745L9.33107 28.2427L29.152 36.1999V44.5271L0.201953 31.7792ZM68.5059 31.7792L39.5559 44.5271V36.1999L59.3767 28.2427L59.1095 28.6745V27.6464L59.3767 28.0782L39.5559 20.1211V11.7939L68.5059 24.5417V31.7792ZM78.9098 31.7792V24.5417L107.86 11.7939V20.1211L88.0389 28.0782L88.3062 27.6464V28.6745L88.0389 28.2427L107.86 36.1999V44.5271L78.9098 31.7792ZM134.898 0.917041L121.327 51.3328H113.781L127.352 0.917041H134.898ZM169.774 31.7792L140.824 44.5271V36.1999L160.645 28.2427L160.378 28.6745V27.6464L160.645 28.0782L140.824 20.1211V11.7939L169.774 24.5417V31.7792Z" fill="white" fill-opacity="1"/>
</svg>
