<svg width="89" height="36" viewBox="0 0 94 27" fill="none" xmlns="http://www.w3.org/2000/svg">
<path d="M0.695312 16.1499V12.3999L15.6953 5.79474V10.1094L5.42543 14.2322L5.56392 14.0085V14.5412L5.42543 14.3175L15.6953 18.4403V22.755L0.695312 16.1499ZM36.0859 16.1499L21.0859 22.755V18.4403L31.3558 14.3175L31.2173 14.5412V14.0085L31.3558 14.2322L21.0859 10.1094V5.79474L36.0859 12.3999V16.1499ZM41.4766 16.1499V12.3999L56.4766 5.79474V10.1094L46.2067 14.2322L46.3452 14.0085V14.5412L46.2067 14.3175L56.4766 18.4403V22.755L41.4766 16.1499ZM70.4858 0.159089L63.4545 26.2812H59.5447L66.576 0.159089H70.4858ZM88.5566 16.1499L73.5566 22.755V18.4403L83.8265 14.3175L83.688 14.5412V14.0085L83.8265 14.2322L73.5566 10.1094V5.79474L88.5566 12.3999V16.1499Z" fill="white" fill-opacity="1"/>
</svg>
